<svg xmlns="http://www.w3.org/2000/svg" width="40" height="28" viewBox="0 0 12 16" fill="none"><path fill-rule="evenodd" clip-rule="evenodd" d="M2.30604 5.47492C3.57963 5.47492 4.61208 4.43732 4.61208 3.15738C4.61208 1.87744 3.57963 0.839844 2.30604 0.839844C1.03245 0.839844 2.53808e-08 1.87744 2.53808e-08 3.15738C2.53808e-08 4.43732 1.03245 5.47492 2.30604 5.47492ZM0.19621 15.16H4.18292C2.6195 10.4463 6.52726 7.71402 8.87317 8.01097L11.3746 4.63286C3.79207 2.70813 -1.05452 9.42506 0.19621 15.16ZM7.30985 15.1603L5.0812 12.1531C5.58853 10.442 6.722 9.69569 7.73901 9.40343L12.0001 15.1603H7.30985Z" fill="hsl(158 51% 30%)"></path></svg>